# xmcd
#
# Track frame offsets: 
#        182
#        15387
#        32787
#        48507
#        60680
#        72825
#        88200
#        105745
#        124570
#        136510
#
# Disc length: 2060 seconds
#
# Revision: 3
# Processed by: cddbd v1.5PL3 Copyright (c) Steve Scherf et al.
# Submitted via: ExactAudioCopy v0.95a3
#
DISCID=7e080a0a
DTITLE=Daryle Singletary - Ain't It The Truth
DYEAR=1998
DGENRE=Country
TTITLE0=The Note
TTITLE1=Love Or The Lack Of
TTITLE2=That's Where You're Wrong
TTITLE3=A Thing Called Love
TTITLE4=I'd Live For You
TTITLE5=Miracle In The Making
TTITLE6=My Baby's Lovin'
TTITLE7=You Ain't Heard Nothin' Yet
TTITLE8=The Real Deal
TTITLE9=Ain't It The Truth
EXTD=
EXTT0=
EXTT1=
EXTT2=
EXTT3=
EXTT4=
EXTT5=
EXTT6=
EXTT7=
EXTT8=
EXTT9=
PLAYORDER=
